<svg width="161" height="30" viewBox="0 0 161 30" fill="none" xmlns="http://www.w3.org/2000/svg">
<g filter="url(#filter0_d_1_112)">
<mask id="path-1-outside-1_1_112" maskUnits="userSpaceOnUse" x="4" y="0" width="153" height="22" fill="black">
<rect fill="white" x="4" width="153" height="22"/>
<path d="M21.3351 1.16067C21.6278 1.03213 21.9537 0.98072 22.313 1.00643C22.6722 1.03213 23.0115 1.12853 23.3309 1.29563C23.6635 1.44987 23.9562 1.66838 24.209 1.95116C24.4618 2.23393 24.6281 2.57455 24.708 2.97301C24.7878 3.37146 24.7678 3.82134 24.6481 4.32262C24.4751 4.93959 24.1358 5.40231 23.6302 5.7108C23.1379 6.01928 22.5325 6.16709 21.814 6.15424C21.1089 6.14139 20.4103 6.06427 19.7185 5.92288C19.0399 5.78149 18.3214 5.57583 17.563 5.30591L16.2657 16.6041C16.2524 16.6684 16.2125 16.7005 16.146 16.7005H11.8151L11.7552 16.6812C11.7419 16.6684 11.7419 16.6427 11.7552 16.6041L13.4516 4.11054C12.7864 3.90488 12.161 3.87918 11.5756 4.03342C10.9901 4.17481 10.6176 4.51542 10.4579 5.05527C10.3781 5.31234 10.3914 5.56298 10.4978 5.8072C10.6043 6.05141 10.7174 6.25707 10.8371 6.42416C10.9702 6.59126 11.0168 6.71337 10.9768 6.79049C10.7506 7.25321 10.3515 7.61954 9.77936 7.88946C9.22053 8.15938 8.6484 8.26864 8.06297 8.21722C7.30456 8.15296 6.67256 7.9473 6.16696 7.60026C5.66135 7.24036 5.32872 6.80977 5.16906 6.30848C5.00939 5.8072 4.96282 5.28663 5.02935 4.74679C5.09588 4.20694 5.30876 3.69923 5.66801 3.22365C6.04056 2.73522 6.50624 2.35604 7.06507 2.08612C8.03636 1.62339 9.08748 1.39846 10.2184 1.41131C11.3627 1.41131 12.3872 1.53985 13.292 1.79691C14.1967 2.05398 15.2545 2.2982 16.4653 2.52956C17.6894 2.74807 18.7937 2.81234 19.7783 2.72236C20.1775 2.6838 20.4902 2.5874 20.7164 2.43316C20.9425 2.26607 21.0756 2.09897 21.1155 1.93188C21.1554 1.75193 21.1887 1.58483 21.2153 1.43059C21.2419 1.27635 21.2818 1.18638 21.3351 1.16067Z"/>
<path d="M26.9486 6.61697C27.6005 6.61697 28.1061 6.80977 28.4654 7.19537C28.8379 7.56812 28.9776 8.09512 28.8845 8.77635C28.7913 9.54756 28.472 10.1581 27.9265 10.608C27.3943 11.045 26.7756 11.2635 26.0704 11.2635C25.8575 11.2635 25.6513 11.2185 25.4517 11.1285C25.2654 11.0386 25.1523 10.955 25.1124 10.8779C25.0991 10.8136 25.0991 10.7686 25.1124 10.7429C25.1257 10.7044 25.1457 10.6272 25.1723 10.5116C25.2122 10.3959 25.2388 10.2866 25.2521 10.1838C25.332 9.61825 25.1989 9.33548 24.853 9.33548C24.5869 9.33548 24.3806 9.52828 24.2343 9.91388C24.1012 10.2866 23.9881 10.8201 23.895 11.5141L23.2563 16.6234C23.243 16.6748 23.2098 16.7069 23.1565 16.7198H19.145L19.0851 16.662V16.6234C19.5641 13.7057 19.8568 11.8033 19.9632 10.9165C20.0431 10.1838 20.0431 9.62468 19.9632 9.23907C19.8834 8.85347 19.7637 8.60925 19.604 8.50643C19.4576 8.39075 19.3312 8.30077 19.2248 8.2365C19.1317 8.17224 19.1117 8.08869 19.1649 7.98586C19.3246 7.65167 19.6639 7.34319 20.1828 7.06041C20.7017 6.76478 21.2273 6.61697 21.7595 6.61697C22.438 6.61697 22.9902 6.80334 23.416 7.17609C23.8551 7.54884 24.1012 8.06298 24.1544 8.71851C24.5004 8.08869 24.9261 7.58098 25.4317 7.19537C25.9507 6.80977 26.4563 6.61697 26.9486 6.61697Z"/>
<path d="M39.0083 13.6735C39.0882 13.7506 39.0948 13.8535 39.0283 13.982C38.7888 14.5733 38.1834 15.2352 37.2121 15.9679C36.2408 16.7005 35.1165 17.0668 33.8392 17.0668C32.3357 17.0668 31.1183 16.5527 30.1869 15.5244C29.2688 14.4961 28.9029 13.2558 29.0892 11.8033C29.2755 10.3509 29.9607 9.11697 31.1449 8.10154C32.3291 7.07326 33.7594 6.55913 35.4359 6.55913C36.9261 6.55913 38.0304 6.91902 38.7489 7.63882C39.4807 8.34576 39.8 9.10411 39.7069 9.91388C39.6137 10.6337 39.3277 11.2378 38.8487 11.7262C38.383 12.2018 37.8308 12.5231 37.1922 12.6902C36.5535 12.8573 35.8616 12.9666 35.1165 13.018C34.3847 13.0694 33.6995 13.0244 33.0609 12.883C33.2737 13.8213 33.9457 14.3612 35.0766 14.5026C36.2209 14.644 37.445 14.374 38.7489 13.6928C38.842 13.6285 38.9285 13.6221 39.0083 13.6735ZM34.438 8.93059C33.7993 9.26478 33.3602 10.0167 33.1207 11.1864C33.9723 11.2635 34.6375 11.1671 35.1165 10.8972C35.6088 10.6144 35.8882 10.2031 35.9548 9.66324C35.9947 9.39332 35.9215 9.16838 35.7352 8.98843C35.5623 8.80848 35.3228 8.72494 35.0167 8.73779C35.0167 8.75064 35.0101 8.75707 34.9968 8.75707H34.9369C34.7506 8.78278 34.5843 8.84062 34.438 8.93059Z"/>
<path d="M50.969 12.7674C50.8891 13.3843 50.8758 13.8663 50.929 14.2134C50.9956 14.5476 51.0887 14.8046 51.2085 14.9846C51.3282 15.1517 51.4546 15.2674 51.5877 15.3316C51.7207 15.383 51.8205 15.4409 51.887 15.5051C51.9536 15.5566 51.9669 15.6272 51.9269 15.7172C51.7673 16.0386 51.428 16.347 50.9091 16.6427C50.3902 16.9254 49.8646 17.0668 49.3324 17.0668C48.5075 17.0668 47.8422 16.8033 47.3366 16.2763C46.8443 15.7365 46.658 15.0231 46.7778 14.1362L47.2568 10.3959C47.3366 9.71465 47.1769 9.3419 46.7778 9.27763C46.3919 9.21337 46.0127 9.4383 45.6402 9.95244C45.3475 10.3638 45.1612 10.8522 45.0813 11.4177L44.4227 16.5848C44.4227 16.6491 44.3895 16.6877 44.3229 16.7005H40.3313C40.2781 16.6877 40.2515 16.6555 40.2515 16.6041C40.7305 13.6735 41.0299 11.7648 41.1496 10.8779C41.2295 10.2609 41.2428 9.78535 41.1895 9.45116C41.1363 9.10411 41.0565 8.84704 40.95 8.67995C40.8436 8.5 40.7305 8.38432 40.6108 8.3329C40.5043 8.26864 40.4178 8.2108 40.3513 8.15938C40.2981 8.10797 40.2914 8.03727 40.3313 7.9473C40.4777 7.61311 40.8103 7.30463 41.3292 7.02185C41.8481 6.72622 42.3737 6.57841 42.9059 6.57841C43.6111 6.57841 44.1832 6.78406 44.6223 7.19537C45.0747 7.59383 45.3208 8.1401 45.3608 8.83419C45.8531 8.06298 46.4318 7.49743 47.0971 7.13753C47.7757 6.76478 48.4143 6.57841 49.0131 6.57841C49.7848 6.57841 50.3968 6.87404 50.8492 7.4653C51.3149 8.05655 51.4879 8.82134 51.3681 9.75964C51.3415 9.991 51.2816 10.4216 51.1885 11.0514C51.1087 11.6684 51.0355 12.2404 50.969 12.7674Z"/>
<path d="M64.0581 12.7674C63.9783 13.5 63.965 14.0591 64.0182 14.4447C64.0848 14.8303 64.1846 15.081 64.3176 15.1967C64.464 15.2995 64.5771 15.383 64.6569 15.4473C64.7367 15.5116 64.75 15.5951 64.6968 15.6979C64.5504 16.0321 64.2178 16.347 63.6989 16.6427C63.18 16.9254 62.6544 17.0668 62.1222 17.0668C61.4303 17.0668 60.8649 16.874 60.4258 16.4884C59.9867 16.09 59.7406 15.5501 59.6873 14.8689C58.7161 16.3342 57.5718 17.0668 56.2546 17.0668C55.4562 17.0668 54.7843 16.8033 54.2388 16.2763C53.6933 15.7494 53.3207 15.0938 53.1212 14.3098C52.9349 13.5257 52.9016 12.6902 53.0214 11.8033C53.2076 10.3895 53.7199 9.16838 54.5581 8.1401C55.3964 7.09897 56.4408 6.57841 57.6915 6.57841C58.9689 6.57841 59.8869 7.18895 60.4457 8.41003L61.1443 2.89589C61.1576 2.84447 61.1908 2.81234 61.2441 2.79949H65.2357C65.2889 2.79949 65.3155 2.82519 65.3155 2.87661C64.5837 8.58355 64.1646 11.8805 64.0581 12.7674ZM57.2724 13.6735C57.472 14.162 57.8113 14.4062 58.2903 14.4062C58.7693 14.4062 59.1684 14.162 59.4878 13.6735C59.8204 13.1851 60.0333 12.5617 60.1264 11.8033C60.2196 11.045 60.1663 10.4216 59.9668 9.93316C59.7672 9.43188 59.4345 9.18123 58.9689 9.18123C58.4899 9.18123 58.084 9.43188 57.7514 9.93316C57.4188 10.4344 57.2059 11.0578 57.1128 11.8033C57.0196 12.5617 57.0728 13.1851 57.2724 13.6735Z"/>
<path d="M76.2032 15.2738C76.0436 16.9833 75.4182 18.365 74.3272 19.419C73.2361 20.473 71.7859 21 69.9763 21C69.2978 21 68.6791 20.8972 68.1202 20.6915C67.5747 20.4987 67.1489 20.2545 66.8429 19.9589C66.5369 19.6632 66.2974 19.3805 66.1244 19.1105C65.9648 18.8406 65.865 18.5964 65.8251 18.3779C65.7585 18.0694 65.7319 17.8316 65.7452 17.6645C65.7718 17.5103 65.8051 17.4075 65.845 17.356C65.8982 17.3046 65.9648 17.2853 66.0446 17.2982C66.1377 17.3111 66.2641 17.401 66.4238 17.5681C66.5835 17.7352 66.7498 17.9087 66.9227 18.0887C67.109 18.2815 67.4017 18.455 67.8009 18.6093C68.2001 18.7635 68.6524 18.8406 69.158 18.8406C69.9165 18.8406 70.5485 18.6285 71.0541 18.2044C71.573 17.7802 71.8923 17.2596 72.012 16.6427L72.2515 14.7147C71.7725 15.4859 71.2137 16.0514 70.5751 16.4113C69.9497 16.7712 69.3377 16.9512 68.7389 16.9512C67.9805 16.9512 67.3685 16.6555 66.9028 16.0643C66.4504 15.473 66.2841 14.7082 66.4038 13.7699L66.7631 10.8779C66.8429 10.2609 66.8496 9.78535 66.783 9.45116C66.7298 9.10411 66.6433 8.84704 66.5236 8.67995C66.4038 8.5 66.2774 8.38432 66.1444 8.3329C66.0246 8.26864 65.9248 8.2108 65.845 8.15938C65.7785 8.10797 65.7652 8.03727 65.8051 7.9473C65.9648 7.61311 66.304 7.30463 66.823 7.02185C67.3419 6.72622 67.8674 6.57841 68.3996 6.57841C69.2379 6.57841 69.9031 6.84833 70.3954 7.38817C70.8877 7.91517 71.074 8.62211 70.9543 9.509L70.4952 13.1337C70.4154 13.8278 70.5618 14.2005 70.9343 14.2519C71.3069 14.3162 71.6661 14.0848 72.012 13.5578C72.2781 13.1465 72.4511 12.671 72.5309 12.1311L73.1896 7.06041C73.1896 7.009 73.2162 6.97686 73.2694 6.96401H77.1213C77.1745 6.96401 77.2011 6.99614 77.2011 7.06041C76.762 10.8265 76.4294 13.5643 76.2032 15.2738Z"/>
<path d="M91.9401 13.5578C92.02 13.635 92.0266 13.7378 91.9601 13.8663C91.8536 14.1105 91.674 14.3933 91.4212 14.7147C91.1684 15.0231 90.8358 15.3573 90.4233 15.7172C90.0242 16.0643 89.5119 16.3599 88.8865 16.6041C88.2745 16.8355 87.6292 16.9512 86.9506 16.9512C85.4338 16.9512 84.2097 16.437 83.2783 15.4087C82.347 14.3805 81.9744 13.1401 82.1607 11.6877C82.347 10.2738 83.0056 9.06555 84.1365 8.06298C85.2675 7.04756 86.598 6.50771 88.1281 6.44344C89.3389 6.44344 90.3568 6.68123 91.1817 7.15681C92.0066 7.61954 92.3659 8.28149 92.2595 9.14267C92.2062 9.63111 91.9667 10.0746 91.541 10.473C91.1152 10.8715 90.6229 11.0707 90.0641 11.0707C89.758 11.0707 89.4653 11.0321 89.1859 10.955C88.9065 10.8779 88.7468 10.8072 88.7069 10.7429C88.6936 10.653 88.687 10.5887 88.687 10.5501C88.687 10.5116 88.7003 10.428 88.7269 10.2995C88.7535 10.1581 88.7734 10.0424 88.7868 9.95244C88.84 9.55398 88.7934 9.23265 88.647 8.98843C88.5007 8.74422 88.2878 8.62211 88.0084 8.62211C87.5028 8.62211 87.0704 8.94344 86.7111 9.58612C86.3652 10.2159 86.1789 10.9165 86.1523 11.6877C86.1257 12.5103 86.292 13.153 86.6512 13.6157C87.0105 14.0656 87.4762 14.3226 88.0483 14.3869C88.6337 14.4383 89.2391 14.3933 89.8645 14.2519C90.4898 14.1105 91.0886 13.8856 91.6607 13.5771C91.7805 13.5 91.8736 13.4936 91.9401 13.5578Z"/>
<path d="M102.842 8.42931C103.774 9.509 104.146 10.7751 103.96 12.2275C103.774 13.6799 103.088 14.8753 101.904 15.8136C100.733 16.7391 99.3362 17.1504 97.713 17.0476C96.1163 16.9319 94.8457 16.3342 93.901 15.2545C92.9696 14.1748 92.5971 12.9087 92.7833 11.4563C92.9696 10.0167 93.6615 8.82776 94.859 7.88946C96.0698 6.95116 97.4668 6.53342 99.0502 6.63625C100.647 6.75193 101.911 7.34961 102.842 8.42931ZM96.7151 11.7262C96.6086 12.6003 96.6552 13.3393 96.8548 13.9434C97.0677 14.5347 97.4469 14.8496 97.9924 14.8882C98.5512 14.9267 98.9969 14.6761 99.3296 14.1362C99.6755 13.5964 99.9084 12.8702 100.028 11.9576C100.148 11.0707 100.101 10.3316 99.8884 9.74036C99.6888 9.1491 99.3163 8.83419 98.7707 8.79563C98.2119 8.75707 97.7595 9.01414 97.4136 9.56684C97.0677 10.1195 96.8348 10.8393 96.7151 11.7262Z"/>
<path d="M114.946 8.42931C115.877 9.509 116.25 10.7751 116.063 12.2275C115.877 13.6799 115.192 14.8753 114.008 15.8136C112.837 16.7391 111.44 17.1504 109.816 17.0476C108.22 16.9319 106.949 16.3342 106.004 15.2545C105.073 14.1748 104.701 12.9087 104.887 11.4563C105.073 10.0167 105.765 8.82776 106.962 7.88946C108.173 6.95116 109.57 6.53342 111.154 6.63625C112.75 6.75193 114.014 7.34961 114.946 8.42931ZM108.819 11.7262C108.712 12.6003 108.759 13.3393 108.958 13.9434C109.171 14.5347 109.55 14.8496 110.096 14.8882C110.655 14.9267 111.1 14.6761 111.433 14.1362C111.779 13.5964 112.012 12.8702 112.132 11.9576C112.251 11.0707 112.205 10.3316 111.992 9.74036C111.792 9.1491 111.42 8.83419 110.874 8.79563C110.315 8.75707 109.863 9.01414 109.517 9.56684C109.171 10.1195 108.938 10.8393 108.819 11.7262Z"/>
<path d="M127.911 15.428C128.071 15.5051 128.144 15.5823 128.131 15.6594C128.131 15.7365 128.038 15.8715 127.852 16.0643C127.572 16.3342 127.16 16.5784 126.614 16.7969C126.082 17.0154 125.556 17.1247 125.038 17.1247C124.386 17.1247 123.82 17.0026 123.341 16.7584C122.875 16.5141 122.536 16.2057 122.323 15.8329C122.11 15.4602 121.931 15.0553 121.784 14.6183C121.638 14.1812 121.571 13.7763 121.585 13.4036C121.611 13.018 121.625 12.6967 121.625 12.4396C121.665 12.1568 121.758 12.0154 121.904 12.0154C122.902 12.0154 123.567 11.6555 123.9 10.9357C124.139 10.3959 124.119 9.92674 123.84 9.52828C123.667 9.28406 123.434 9.16195 123.142 9.16195C122.596 9.16195 122.17 9.36761 121.864 9.77892C121.558 10.1902 121.365 10.6658 121.285 11.2057L120.607 16.5848L120.507 16.7005H116.655C116.602 16.6877 116.575 16.6555 116.575 16.6041C117.52 8.86632 118.085 4.30334 118.272 2.91517C118.285 2.87661 118.312 2.8509 118.352 2.83805H122.263L122.323 2.85733C122.337 2.87018 122.343 2.88946 122.343 2.91517L121.625 8.56427C122.09 7.90874 122.643 7.41388 123.281 7.07969C123.933 6.7455 124.585 6.57841 125.237 6.57841C126.315 6.57841 127.073 7.009 127.512 7.87018C127.911 8.65424 127.905 9.46401 127.492 10.2995C127.027 11.2763 126.195 11.8548 124.998 12.0347L124.978 12.0733C124.991 12.1375 125.011 12.2211 125.038 12.3239C125.077 12.4267 125.171 12.626 125.317 12.9216C125.477 13.2172 125.656 13.5 125.856 13.7699C126.055 14.027 126.335 14.3162 126.694 14.6375C127.067 14.946 127.472 15.2095 127.911 15.428Z"/>
<path d="M134.684 4.26478C134.631 4.76607 134.352 5.19023 133.846 5.53727C133.34 5.88432 132.768 6.05784 132.13 6.05784C131.491 6.05784 130.965 5.88432 130.553 5.53727C130.154 5.19023 129.981 4.76607 130.034 4.26478C130.101 3.77635 130.38 3.35861 130.872 3.01157C131.365 2.65167 131.93 2.47172 132.569 2.47172C133.207 2.47172 133.733 2.65167 134.145 3.01157C134.558 3.35861 134.737 3.77635 134.684 4.26478ZM129.854 7.06041L129.954 6.94473H133.946C134.012 6.95758 134.046 6.98972 134.046 7.04113C133.567 9.97172 133.267 11.8805 133.148 12.7674C133.068 13.3843 133.054 13.8663 133.108 14.2134C133.161 14.5476 133.234 14.8046 133.327 14.9846C133.434 15.1517 133.547 15.2674 133.666 15.3316C133.786 15.383 133.873 15.4344 133.926 15.4859C133.979 15.5373 133.986 15.608 133.946 15.6979C133.799 16.0321 133.467 16.347 132.948 16.6427C132.429 16.9254 131.903 17.0668 131.371 17.0668C130.546 17.0668 129.908 16.8033 129.455 16.2763C129.016 15.7494 128.85 15.036 128.956 14.1362L129.854 7.06041Z"/>
<path d="M145.016 13.6735C145.096 13.7506 145.102 13.8535 145.036 13.982C144.796 14.5733 144.191 15.2352 143.22 15.9679C142.248 16.7005 141.124 17.0668 139.847 17.0668C138.343 17.0668 137.126 16.5527 136.194 15.5244C135.276 14.4961 134.91 13.2558 135.097 11.8033C135.283 10.3509 135.968 9.11697 137.152 8.10154C138.337 7.07326 139.767 6.55913 141.443 6.55913C142.934 6.55913 144.038 6.91902 144.756 7.63882C145.488 8.34576 145.807 9.10411 145.714 9.91388C145.621 10.6337 145.335 11.2378 144.856 11.7262C144.39 12.2018 143.838 12.5231 143.2 12.6902C142.561 12.8573 141.869 12.9666 141.124 13.018C140.392 13.0694 139.707 13.0244 139.068 12.883C139.281 13.8213 139.953 14.3612 141.084 14.5026C142.228 14.644 143.452 14.374 144.756 13.6928C144.85 13.6285 144.936 13.6221 145.016 13.6735ZM140.445 8.93059C139.807 9.26478 139.368 10.0167 139.128 11.1864C139.98 11.2635 140.645 11.1671 141.124 10.8972C141.616 10.6144 141.896 10.2031 141.962 9.66324C142.002 9.39332 141.929 9.16838 141.743 8.98843C141.57 8.80848 141.33 8.72494 141.024 8.73779C141.024 8.75064 141.018 8.75707 141.004 8.75707H140.944C140.758 8.78278 140.592 8.84062 140.445 8.93059Z"/>
<path d="M152.949 11.0129C155.051 11.6427 156.016 12.6452 155.843 14.0206C155.75 14.7532 155.391 15.3638 154.765 15.8522C154.14 16.3278 153.448 16.6491 152.69 16.8162C151.931 16.9961 151.133 17.0797 150.295 17.0668C149.616 17.054 148.951 16.9704 148.299 16.8162C147.647 16.6748 147.068 16.3985 146.563 15.9871C146.057 15.5758 145.844 15.081 145.924 14.5026C145.99 14.0141 146.223 13.6028 146.622 13.2686C147.035 12.9216 147.521 12.7545 148.079 12.7674C148.399 12.7802 148.711 12.8252 149.017 12.9023C149.337 12.9794 149.51 13.0566 149.536 13.1337C149.563 13.2365 149.576 13.3072 149.576 13.3458C149.576 13.3715 149.563 13.455 149.536 13.5964C149.51 13.7378 149.49 13.847 149.476 13.9242C149.423 14.2969 149.49 14.5861 149.676 14.7918C149.876 14.9974 150.155 15.1067 150.514 15.1195C151.206 15.1195 151.599 14.8368 151.692 14.2712C151.705 14.0913 151.672 13.937 151.592 13.8085C151.525 13.6671 151.386 13.5386 151.173 13.4229C150.96 13.3072 150.78 13.2172 150.634 13.153C150.488 13.0887 150.222 12.9987 149.836 12.883C149.45 12.7545 149.184 12.6645 149.037 12.6131C148.306 12.3432 147.713 11.964 147.261 11.4756C146.809 10.9743 146.622 10.3702 146.702 9.66324V9.6054C146.822 8.66709 147.387 7.92159 148.399 7.36889C149.41 6.80334 150.474 6.53342 151.592 6.55913C152.869 6.58483 153.947 6.82262 154.825 7.27249C155.703 7.70951 156.089 8.32648 155.983 9.12339C155.93 9.59897 155.71 9.99743 155.324 10.3188C154.938 10.6401 154.446 10.7943 153.847 10.7815C153.515 10.7686 153.202 10.7237 152.909 10.6465C152.63 10.5566 152.477 10.473 152.45 10.3959C152.424 10.3573 152.45 10.0938 152.53 9.6054C152.583 9.21979 152.537 8.93702 152.39 8.75707C152.244 8.57712 151.998 8.49357 151.652 8.50643C151.359 8.50643 151.113 8.60283 150.913 8.79563C150.727 8.98843 150.621 9.18766 150.594 9.39332C150.541 9.79177 150.681 10.0938 151.013 10.2995C151.359 10.4923 151.918 10.7044 152.69 10.9357C152.716 10.9486 152.736 10.955 152.75 10.955C152.763 10.955 152.783 10.9614 152.809 10.9743C152.836 10.9743 152.856 10.9807 152.869 10.9936C152.896 10.9936 152.923 11 152.949 11.0129Z"/>
</mask>
<path d="M21.3351 1.16067C21.6278 1.03213 21.9537 0.98072 22.313 1.00643C22.6722 1.03213 23.0115 1.12853 23.3309 1.29563C23.6635 1.44987 23.9562 1.66838 24.209 1.95116C24.4618 2.23393 24.6281 2.57455 24.708 2.97301C24.7878 3.37146 24.7678 3.82134 24.6481 4.32262C24.4751 4.93959 24.1358 5.40231 23.6302 5.7108C23.1379 6.01928 22.5325 6.16709 21.814 6.15424C21.1089 6.14139 20.4103 6.06427 19.7185 5.92288C19.0399 5.78149 18.3214 5.57583 17.563 5.30591L16.2657 16.6041C16.2524 16.6684 16.2125 16.7005 16.146 16.7005H11.8151L11.7552 16.6812C11.7419 16.6684 11.7419 16.6427 11.7552 16.6041L13.4516 4.11054C12.7864 3.90488 12.161 3.87918 11.5756 4.03342C10.9901 4.17481 10.6176 4.51542 10.4579 5.05527C10.3781 5.31234 10.3914 5.56298 10.4978 5.8072C10.6043 6.05141 10.7174 6.25707 10.8371 6.42416C10.9702 6.59126 11.0168 6.71337 10.9768 6.79049C10.7506 7.25321 10.3515 7.61954 9.77936 7.88946C9.22053 8.15938 8.6484 8.26864 8.06297 8.21722C7.30456 8.15296 6.67256 7.9473 6.16696 7.60026C5.66135 7.24036 5.32872 6.80977 5.16906 6.30848C5.00939 5.8072 4.96282 5.28663 5.02935 4.74679C5.09588 4.20694 5.30876 3.69923 5.66801 3.22365C6.04056 2.73522 6.50624 2.35604 7.06507 2.08612C8.03636 1.62339 9.08748 1.39846 10.2184 1.41131C11.3627 1.41131 12.3872 1.53985 13.292 1.79691C14.1967 2.05398 15.2545 2.2982 16.4653 2.52956C17.6894 2.74807 18.7937 2.81234 19.7783 2.72236C20.1775 2.6838 20.4902 2.5874 20.7164 2.43316C20.9425 2.26607 21.0756 2.09897 21.1155 1.93188C21.1554 1.75193 21.1887 1.58483 21.2153 1.43059C21.2419 1.27635 21.2818 1.18638 21.3351 1.16067Z" fill="white"/>
<path d="M26.9486 6.61697C27.6005 6.61697 28.1061 6.80977 28.4654 7.19537C28.8379 7.56812 28.9776 8.09512 28.8845 8.77635C28.7913 9.54756 28.472 10.1581 27.9265 10.608C27.3943 11.045 26.7756 11.2635 26.0704 11.2635C25.8575 11.2635 25.6513 11.2185 25.4517 11.1285C25.2654 11.0386 25.1523 10.955 25.1124 10.8779C25.0991 10.8136 25.0991 10.7686 25.1124 10.7429C25.1257 10.7044 25.1457 10.6272 25.1723 10.5116C25.2122 10.3959 25.2388 10.2866 25.2521 10.1838C25.332 9.61825 25.1989 9.33548 24.853 9.33548C24.5869 9.33548 24.3806 9.52828 24.2343 9.91388C24.1012 10.2866 23.9881 10.8201 23.895 11.5141L23.2563 16.6234C23.243 16.6748 23.2098 16.7069 23.1565 16.7198H19.145L19.0851 16.662V16.6234C19.5641 13.7057 19.8568 11.8033 19.9632 10.9165C20.0431 10.1838 20.0431 9.62468 19.9632 9.23907C19.8834 8.85347 19.7637 8.60925 19.604 8.50643C19.4576 8.39075 19.3312 8.30077 19.2248 8.2365C19.1317 8.17224 19.1117 8.08869 19.1649 7.98586C19.3246 7.65167 19.6639 7.34319 20.1828 7.06041C20.7017 6.76478 21.2273 6.61697 21.7595 6.61697C22.438 6.61697 22.9902 6.80334 23.416 7.17609C23.8551 7.54884 24.1012 8.06298 24.1544 8.71851C24.5004 8.08869 24.9261 7.58098 25.4317 7.19537C25.9507 6.80977 26.4563 6.61697 26.9486 6.61697Z" fill="white"/>
<path d="M39.0083 13.6735C39.0882 13.7506 39.0948 13.8535 39.0283 13.982C38.7888 14.5733 38.1834 15.2352 37.2121 15.9679C36.2408 16.7005 35.1165 17.0668 33.8392 17.0668C32.3357 17.0668 31.1183 16.5527 30.1869 15.5244C29.2688 14.4961 28.9029 13.2558 29.0892 11.8033C29.2755 10.3509 29.9607 9.11697 31.1449 8.10154C32.3291 7.07326 33.7594 6.55913 35.4359 6.55913C36.9261 6.55913 38.0304 6.91902 38.7489 7.63882C39.4807 8.34576 39.8 9.10411 39.7069 9.91388C39.6137 10.6337 39.3277 11.2378 38.8487 11.7262C38.383 12.2018 37.8308 12.5231 37.1922 12.6902C36.5535 12.8573 35.8616 12.9666 35.1165 13.018C34.3847 13.0694 33.6995 13.0244 33.0609 12.883C33.2737 13.8213 33.9457 14.3612 35.0766 14.5026C36.2209 14.644 37.445 14.374 38.7489 13.6928C38.842 13.6285 38.9285 13.6221 39.0083 13.6735ZM34.438 8.93059C33.7993 9.26478 33.3602 10.0167 33.1207 11.1864C33.9723 11.2635 34.6375 11.1671 35.1165 10.8972C35.6088 10.6144 35.8882 10.2031 35.9548 9.66324C35.9947 9.39332 35.9215 9.16838 35.7352 8.98843C35.5623 8.80848 35.3228 8.72494 35.0167 8.73779C35.0167 8.75064 35.0101 8.75707 34.9968 8.75707H34.9369C34.7506 8.78278 34.5843 8.84062 34.438 8.93059Z" fill="white"/>
<path d="M50.969 12.7674C50.8891 13.3843 50.8758 13.8663 50.929 14.2134C50.9956 14.5476 51.0887 14.8046 51.2085 14.9846C51.3282 15.1517 51.4546 15.2674 51.5877 15.3316C51.7207 15.383 51.8205 15.4409 51.887 15.5051C51.9536 15.5566 51.9669 15.6272 51.9269 15.7172C51.7673 16.0386 51.428 16.347 50.9091 16.6427C50.3902 16.9254 49.8646 17.0668 49.3324 17.0668C48.5075 17.0668 47.8422 16.8033 47.3366 16.2763C46.8443 15.7365 46.658 15.0231 46.7778 14.1362L47.2568 10.3959C47.3366 9.71465 47.1769 9.3419 46.7778 9.27763C46.3919 9.21337 46.0127 9.4383 45.6402 9.95244C45.3475 10.3638 45.1612 10.8522 45.0813 11.4177L44.4227 16.5848C44.4227 16.6491 44.3895 16.6877 44.3229 16.7005H40.3313C40.2781 16.6877 40.2515 16.6555 40.2515 16.6041C40.7305 13.6735 41.0299 11.7648 41.1496 10.8779C41.2295 10.2609 41.2428 9.78535 41.1895 9.45116C41.1363 9.10411 41.0565 8.84704 40.95 8.67995C40.8436 8.5 40.7305 8.38432 40.6108 8.3329C40.5043 8.26864 40.4178 8.2108 40.3513 8.15938C40.2981 8.10797 40.2914 8.03727 40.3313 7.9473C40.4777 7.61311 40.8103 7.30463 41.3292 7.02185C41.8481 6.72622 42.3737 6.57841 42.9059 6.57841C43.6111 6.57841 44.1832 6.78406 44.6223 7.19537C45.0747 7.59383 45.3208 8.1401 45.3608 8.83419C45.8531 8.06298 46.4318 7.49743 47.0971 7.13753C47.7757 6.76478 48.4143 6.57841 49.0131 6.57841C49.7848 6.57841 50.3968 6.87404 50.8492 7.4653C51.3149 8.05655 51.4879 8.82134 51.3681 9.75964C51.3415 9.991 51.2816 10.4216 51.1885 11.0514C51.1087 11.6684 51.0355 12.2404 50.969 12.7674Z" fill="white"/>
<path d="M64.0581 12.7674C63.9783 13.5 63.965 14.0591 64.0182 14.4447C64.0848 14.8303 64.1846 15.081 64.3176 15.1967C64.464 15.2995 64.5771 15.383 64.6569 15.4473C64.7367 15.5116 64.75 15.5951 64.6968 15.6979C64.5504 16.0321 64.2178 16.347 63.6989 16.6427C63.18 16.9254 62.6544 17.0668 62.1222 17.0668C61.4303 17.0668 60.8649 16.874 60.4258 16.4884C59.9867 16.09 59.7406 15.5501 59.6873 14.8689C58.7161 16.3342 57.5718 17.0668 56.2546 17.0668C55.4562 17.0668 54.7843 16.8033 54.2388 16.2763C53.6933 15.7494 53.3207 15.0938 53.1212 14.3098C52.9349 13.5257 52.9016 12.6902 53.0214 11.8033C53.2076 10.3895 53.7199 9.16838 54.5581 8.1401C55.3964 7.09897 56.4408 6.57841 57.6915 6.57841C58.9689 6.57841 59.8869 7.18895 60.4457 8.41003L61.1443 2.89589C61.1576 2.84447 61.1908 2.81234 61.2441 2.79949H65.2357C65.2889 2.79949 65.3155 2.82519 65.3155 2.87661C64.5837 8.58355 64.1646 11.8805 64.0581 12.7674ZM57.2724 13.6735C57.472 14.162 57.8113 14.4062 58.2903 14.4062C58.7693 14.4062 59.1684 14.162 59.4878 13.6735C59.8204 13.1851 60.0333 12.5617 60.1264 11.8033C60.2196 11.045 60.1663 10.4216 59.9668 9.93316C59.7672 9.43188 59.4345 9.18123 58.9689 9.18123C58.4899 9.18123 58.084 9.43188 57.7514 9.93316C57.4188 10.4344 57.2059 11.0578 57.1128 11.8033C57.0196 12.5617 57.0728 13.1851 57.2724 13.6735Z" fill="white"/>
<path d="M76.2032 15.2738C76.0436 16.9833 75.4182 18.365 74.3272 19.419C73.2361 20.473 71.7859 21 69.9763 21C69.2978 21 68.6791 20.8972 68.1202 20.6915C67.5747 20.4987 67.1489 20.2545 66.8429 19.9589C66.5369 19.6632 66.2974 19.3805 66.1244 19.1105C65.9648 18.8406 65.865 18.5964 65.8251 18.3779C65.7585 18.0694 65.7319 17.8316 65.7452 17.6645C65.7718 17.5103 65.8051 17.4075 65.845 17.356C65.8982 17.3046 65.9648 17.2853 66.0446 17.2982C66.1377 17.3111 66.2641 17.401 66.4238 17.5681C66.5835 17.7352 66.7498 17.9087 66.9227 18.0887C67.109 18.2815 67.4017 18.455 67.8009 18.6093C68.2001 18.7635 68.6524 18.8406 69.158 18.8406C69.9165 18.8406 70.5485 18.6285 71.0541 18.2044C71.573 17.7802 71.8923 17.2596 72.012 16.6427L72.2515 14.7147C71.7725 15.4859 71.2137 16.0514 70.5751 16.4113C69.9497 16.7712 69.3377 16.9512 68.7389 16.9512C67.9805 16.9512 67.3685 16.6555 66.9028 16.0643C66.4504 15.473 66.2841 14.7082 66.4038 13.7699L66.7631 10.8779C66.8429 10.2609 66.8496 9.78535 66.783 9.45116C66.7298 9.10411 66.6433 8.84704 66.5236 8.67995C66.4038 8.5 66.2774 8.38432 66.1444 8.3329C66.0246 8.26864 65.9248 8.2108 65.845 8.15938C65.7785 8.10797 65.7652 8.03727 65.8051 7.9473C65.9648 7.61311 66.304 7.30463 66.823 7.02185C67.3419 6.72622 67.8674 6.57841 68.3996 6.57841C69.2379 6.57841 69.9031 6.84833 70.3954 7.38817C70.8877 7.91517 71.074 8.62211 70.9543 9.509L70.4952 13.1337C70.4154 13.8278 70.5618 14.2005 70.9343 14.2519C71.3069 14.3162 71.6661 14.0848 72.012 13.5578C72.2781 13.1465 72.4511 12.671 72.5309 12.1311L73.1896 7.06041C73.1896 7.009 73.2162 6.97686 73.2694 6.96401H77.1213C77.1745 6.96401 77.2011 6.99614 77.2011 7.06041C76.762 10.8265 76.4294 13.5643 76.2032 15.2738Z" fill="white"/>
<path d="M91.9401 13.5578C92.02 13.635 92.0266 13.7378 91.9601 13.8663C91.8536 14.1105 91.674 14.3933 91.4212 14.7147C91.1684 15.0231 90.8358 15.3573 90.4233 15.7172C90.0242 16.0643 89.5119 16.3599 88.8865 16.6041C88.2745 16.8355 87.6292 16.9512 86.9506 16.9512C85.4338 16.9512 84.2097 16.437 83.2783 15.4087C82.347 14.3805 81.9744 13.1401 82.1607 11.6877C82.347 10.2738 83.0056 9.06555 84.1365 8.06298C85.2675 7.04756 86.598 6.50771 88.1281 6.44344C89.3389 6.44344 90.3568 6.68123 91.1817 7.15681C92.0066 7.61954 92.3659 8.28149 92.2595 9.14267C92.2062 9.63111 91.9667 10.0746 91.541 10.473C91.1152 10.8715 90.6229 11.0707 90.0641 11.0707C89.758 11.0707 89.4653 11.0321 89.1859 10.955C88.9065 10.8779 88.7468 10.8072 88.7069 10.7429C88.6936 10.653 88.687 10.5887 88.687 10.5501C88.687 10.5116 88.7003 10.428 88.7269 10.2995C88.7535 10.1581 88.7734 10.0424 88.7868 9.95244C88.84 9.55398 88.7934 9.23265 88.647 8.98843C88.5007 8.74422 88.2878 8.62211 88.0084 8.62211C87.5028 8.62211 87.0704 8.94344 86.7111 9.58612C86.3652 10.2159 86.1789 10.9165 86.1523 11.6877C86.1257 12.5103 86.292 13.153 86.6512 13.6157C87.0105 14.0656 87.4762 14.3226 88.0483 14.3869C88.6337 14.4383 89.2391 14.3933 89.8645 14.2519C90.4898 14.1105 91.0886 13.8856 91.6607 13.5771C91.7805 13.5 91.8736 13.4936 91.9401 13.5578Z" fill="white"/>
<path d="M102.842 8.42931C103.774 9.509 104.146 10.7751 103.96 12.2275C103.774 13.6799 103.088 14.8753 101.904 15.8136C100.733 16.7391 99.3362 17.1504 97.713 17.0476C96.1163 16.9319 94.8457 16.3342 93.901 15.2545C92.9696 14.1748 92.5971 12.9087 92.7833 11.4563C92.9696 10.0167 93.6615 8.82776 94.859 7.88946C96.0698 6.95116 97.4668 6.53342 99.0502 6.63625C100.647 6.75193 101.911 7.34961 102.842 8.42931ZM96.7151 11.7262C96.6086 12.6003 96.6552 13.3393 96.8548 13.9434C97.0677 14.5347 97.4469 14.8496 97.9924 14.8882C98.5512 14.9267 98.9969 14.6761 99.3296 14.1362C99.6755 13.5964 99.9084 12.8702 100.028 11.9576C100.148 11.0707 100.101 10.3316 99.8884 9.74036C99.6888 9.1491 99.3163 8.83419 98.7707 8.79563C98.2119 8.75707 97.7595 9.01414 97.4136 9.56684C97.0677 10.1195 96.8348 10.8393 96.7151 11.7262Z" fill="white"/>
<path d="M114.946 8.42931C115.877 9.509 116.25 10.7751 116.063 12.2275C115.877 13.6799 115.192 14.8753 114.008 15.8136C112.837 16.7391 111.44 17.1504 109.816 17.0476C108.22 16.9319 106.949 16.3342 106.004 15.2545C105.073 14.1748 104.701 12.9087 104.887 11.4563C105.073 10.0167 105.765 8.82776 106.962 7.88946C108.173 6.95116 109.57 6.53342 111.154 6.63625C112.75 6.75193 114.014 7.34961 114.946 8.42931ZM108.819 11.7262C108.712 12.6003 108.759 13.3393 108.958 13.9434C109.171 14.5347 109.55 14.8496 110.096 14.8882C110.655 14.9267 111.1 14.6761 111.433 14.1362C111.779 13.5964 112.012 12.8702 112.132 11.9576C112.251 11.0707 112.205 10.3316 111.992 9.74036C111.792 9.1491 111.42 8.83419 110.874 8.79563C110.315 8.75707 109.863 9.01414 109.517 9.56684C109.171 10.1195 108.938 10.8393 108.819 11.7262Z" fill="white"/>
<path d="M127.911 15.428C128.071 15.5051 128.144 15.5823 128.131 15.6594C128.131 15.7365 128.038 15.8715 127.852 16.0643C127.572 16.3342 127.16 16.5784 126.614 16.7969C126.082 17.0154 125.556 17.1247 125.038 17.1247C124.386 17.1247 123.82 17.0026 123.341 16.7584C122.875 16.5141 122.536 16.2057 122.323 15.8329C122.11 15.4602 121.931 15.0553 121.784 14.6183C121.638 14.1812 121.571 13.7763 121.585 13.4036C121.611 13.018 121.625 12.6967 121.625 12.4396C121.665 12.1568 121.758 12.0154 121.904 12.0154C122.902 12.0154 123.567 11.6555 123.9 10.9357C124.139 10.3959 124.119 9.92674 123.84 9.52828C123.667 9.28406 123.434 9.16195 123.142 9.16195C122.596 9.16195 122.17 9.36761 121.864 9.77892C121.558 10.1902 121.365 10.6658 121.285 11.2057L120.607 16.5848L120.507 16.7005H116.655C116.602 16.6877 116.575 16.6555 116.575 16.6041C117.52 8.86632 118.085 4.30334 118.272 2.91517C118.285 2.87661 118.312 2.8509 118.352 2.83805H122.263L122.323 2.85733C122.337 2.87018 122.343 2.88946 122.343 2.91517L121.625 8.56427C122.09 7.90874 122.643 7.41388 123.281 7.07969C123.933 6.7455 124.585 6.57841 125.237 6.57841C126.315 6.57841 127.073 7.009 127.512 7.87018C127.911 8.65424 127.905 9.46401 127.492 10.2995C127.027 11.2763 126.195 11.8548 124.998 12.0347L124.978 12.0733C124.991 12.1375 125.011 12.2211 125.038 12.3239C125.077 12.4267 125.171 12.626 125.317 12.9216C125.477 13.2172 125.656 13.5 125.856 13.7699C126.055 14.027 126.335 14.3162 126.694 14.6375C127.067 14.946 127.472 15.2095 127.911 15.428Z" fill="white"/>
<path d="M134.684 4.26478C134.631 4.76607 134.352 5.19023 133.846 5.53727C133.34 5.88432 132.768 6.05784 132.13 6.05784C131.491 6.05784 130.965 5.88432 130.553 5.53727C130.154 5.19023 129.981 4.76607 130.034 4.26478C130.101 3.77635 130.38 3.35861 130.872 3.01157C131.365 2.65167 131.93 2.47172 132.569 2.47172C133.207 2.47172 133.733 2.65167 134.145 3.01157C134.558 3.35861 134.737 3.77635 134.684 4.26478ZM129.854 7.06041L129.954 6.94473H133.946C134.012 6.95758 134.046 6.98972 134.046 7.04113C133.567 9.97172 133.267 11.8805 133.148 12.7674C133.068 13.3843 133.054 13.8663 133.108 14.2134C133.161 14.5476 133.234 14.8046 133.327 14.9846C133.434 15.1517 133.547 15.2674 133.666 15.3316C133.786 15.383 133.873 15.4344 133.926 15.4859C133.979 15.5373 133.986 15.608 133.946 15.6979C133.799 16.0321 133.467 16.347 132.948 16.6427C132.429 16.9254 131.903 17.0668 131.371 17.0668C130.546 17.0668 129.908 16.8033 129.455 16.2763C129.016 15.7494 128.85 15.036 128.956 14.1362L129.854 7.06041Z" fill="white"/>
<path d="M145.016 13.6735C145.096 13.7506 145.102 13.8535 145.036 13.982C144.796 14.5733 144.191 15.2352 143.22 15.9679C142.248 16.7005 141.124 17.0668 139.847 17.0668C138.343 17.0668 137.126 16.5527 136.194 15.5244C135.276 14.4961 134.91 13.2558 135.097 11.8033C135.283 10.3509 135.968 9.11697 137.152 8.10154C138.337 7.07326 139.767 6.55913 141.443 6.55913C142.934 6.55913 144.038 6.91902 144.756 7.63882C145.488 8.34576 145.807 9.10411 145.714 9.91388C145.621 10.6337 145.335 11.2378 144.856 11.7262C144.39 12.2018 143.838 12.5231 143.2 12.6902C142.561 12.8573 141.869 12.9666 141.124 13.018C140.392 13.0694 139.707 13.0244 139.068 12.883C139.281 13.8213 139.953 14.3612 141.084 14.5026C142.228 14.644 143.452 14.374 144.756 13.6928C144.85 13.6285 144.936 13.6221 145.016 13.6735ZM140.445 8.93059C139.807 9.26478 139.368 10.0167 139.128 11.1864C139.98 11.2635 140.645 11.1671 141.124 10.8972C141.616 10.6144 141.896 10.2031 141.962 9.66324C142.002 9.39332 141.929 9.16838 141.743 8.98843C141.57 8.80848 141.33 8.72494 141.024 8.73779C141.024 8.75064 141.018 8.75707 141.004 8.75707H140.944C140.758 8.78278 140.592 8.84062 140.445 8.93059Z" fill="white"/>
<path d="M152.949 11.0129C155.051 11.6427 156.016 12.6452 155.843 14.0206C155.75 14.7532 155.391 15.3638 154.765 15.8522C154.14 16.3278 153.448 16.6491 152.69 16.8162C151.931 16.9961 151.133 17.0797 150.295 17.0668C149.616 17.054 148.951 16.9704 148.299 16.8162C147.647 16.6748 147.068 16.3985 146.563 15.9871C146.057 15.5758 145.844 15.081 145.924 14.5026C145.99 14.0141 146.223 13.6028 146.622 13.2686C147.035 12.9216 147.521 12.7545 148.079 12.7674C148.399 12.7802 148.711 12.8252 149.017 12.9023C149.337 12.9794 149.51 13.0566 149.536 13.1337C149.563 13.2365 149.576 13.3072 149.576 13.3458C149.576 13.3715 149.563 13.455 149.536 13.5964C149.51 13.7378 149.49 13.847 149.476 13.9242C149.423 14.2969 149.49 14.5861 149.676 14.7918C149.876 14.9974 150.155 15.1067 150.514 15.1195C151.206 15.1195 151.599 14.8368 151.692 14.2712C151.705 14.0913 151.672 13.937 151.592 13.8085C151.525 13.6671 151.386 13.5386 151.173 13.4229C150.96 13.3072 150.78 13.2172 150.634 13.153C150.488 13.0887 150.222 12.9987 149.836 12.883C149.45 12.7545 149.184 12.6645 149.037 12.6131C148.306 12.3432 147.713 11.964 147.261 11.4756C146.809 10.9743 146.622 10.3702 146.702 9.66324V9.6054C146.822 8.66709 147.387 7.92159 148.399 7.36889C149.41 6.80334 150.474 6.53342 151.592 6.55913C152.869 6.58483 153.947 6.82262 154.825 7.27249C155.703 7.70951 156.089 8.32648 155.983 9.12339C155.93 9.59897 155.71 9.99743 155.324 10.3188C154.938 10.6401 154.446 10.7943 153.847 10.7815C153.515 10.7686 153.202 10.7237 152.909 10.6465C152.63 10.5566 152.477 10.473 152.45 10.3959C152.424 10.3573 152.45 10.0938 152.53 9.6054C152.583 9.21979 152.537 8.93702 152.39 8.75707C152.244 8.57712 151.998 8.49357 151.652 8.50643C151.359 8.50643 151.113 8.60283 150.913 8.79563C150.727 8.98843 150.621 9.18766 150.594 9.39332C150.541 9.79177 150.681 10.0938 151.013 10.2995C151.359 10.4923 151.918 10.7044 152.69 10.9357C152.716 10.9486 152.736 10.955 152.75 10.955C152.763 10.955 152.783 10.9614 152.809 10.9743C152.836 10.9743 152.856 10.9807 152.869 10.9936C152.896 10.9936 152.923 11 152.949 11.0129Z" fill="white"/>
<path d="M21.3351 1.16067C21.6278 1.03213 21.9537 0.98072 22.313 1.00643C22.6722 1.03213 23.0115 1.12853 23.3309 1.29563C23.6635 1.44987 23.9562 1.66838 24.209 1.95116C24.4618 2.23393 24.6281 2.57455 24.708 2.97301C24.7878 3.37146 24.7678 3.82134 24.6481 4.32262C24.4751 4.93959 24.1358 5.40231 23.6302 5.7108C23.1379 6.01928 22.5325 6.16709 21.814 6.15424C21.1089 6.14139 20.4103 6.06427 19.7185 5.92288C19.0399 5.78149 18.3214 5.57583 17.563 5.30591L16.2657 16.6041C16.2524 16.6684 16.2125 16.7005 16.146 16.7005H11.8151L11.7552 16.6812C11.7419 16.6684 11.7419 16.6427 11.7552 16.6041L13.4516 4.11054C12.7864 3.90488 12.161 3.87918 11.5756 4.03342C10.9901 4.17481 10.6176 4.51542 10.4579 5.05527C10.3781 5.31234 10.3914 5.56298 10.4978 5.8072C10.6043 6.05141 10.7174 6.25707 10.8371 6.42416C10.9702 6.59126 11.0168 6.71337 10.9768 6.79049C10.7506 7.25321 10.3515 7.61954 9.77936 7.88946C9.22053 8.15938 8.6484 8.26864 8.06297 8.21722C7.30456 8.15296 6.67256 7.9473 6.16696 7.60026C5.66135 7.24036 5.32872 6.80977 5.16906 6.30848C5.00939 5.8072 4.96282 5.28663 5.02935 4.74679C5.09588 4.20694 5.30876 3.69923 5.66801 3.22365C6.04056 2.73522 6.50624 2.35604 7.06507 2.08612C8.03636 1.62339 9.08748 1.39846 10.2184 1.41131C11.3627 1.41131 12.3872 1.53985 13.292 1.79691C14.1967 2.05398 15.2545 2.2982 16.4653 2.52956C17.6894 2.74807 18.7937 2.81234 19.7783 2.72236C20.1775 2.6838 20.4902 2.5874 20.7164 2.43316C20.9425 2.26607 21.0756 2.09897 21.1155 1.93188C21.1554 1.75193 21.1887 1.58483 21.2153 1.43059C21.2419 1.27635 21.2818 1.18638 21.3351 1.16067Z" stroke="black" stroke-width="2" mask="url(#path-1-outside-1_1_112)"/>
<path d="M26.9486 6.61697C27.6005 6.61697 28.1061 6.80977 28.4654 7.19537C28.8379 7.56812 28.9776 8.09512 28.8845 8.77635C28.7913 9.54756 28.472 10.1581 27.9265 10.608C27.3943 11.045 26.7756 11.2635 26.0704 11.2635C25.8575 11.2635 25.6513 11.2185 25.4517 11.1285C25.2654 11.0386 25.1523 10.955 25.1124 10.8779C25.0991 10.8136 25.0991 10.7686 25.1124 10.7429C25.1257 10.7044 25.1457 10.6272 25.1723 10.5116C25.2122 10.3959 25.2388 10.2866 25.2521 10.1838C25.332 9.61825 25.1989 9.33548 24.853 9.33548C24.5869 9.33548 24.3806 9.52828 24.2343 9.91388C24.1012 10.2866 23.9881 10.8201 23.895 11.5141L23.2563 16.6234C23.243 16.6748 23.2098 16.7069 23.1565 16.7198H19.145L19.0851 16.662V16.6234C19.5641 13.7057 19.8568 11.8033 19.9632 10.9165C20.0431 10.1838 20.0431 9.62468 19.9632 9.23907C19.8834 8.85347 19.7637 8.60925 19.604 8.50643C19.4576 8.39075 19.3312 8.30077 19.2248 8.2365C19.1317 8.17224 19.1117 8.08869 19.1649 7.98586C19.3246 7.65167 19.6639 7.34319 20.1828 7.06041C20.7017 6.76478 21.2273 6.61697 21.7595 6.61697C22.438 6.61697 22.9902 6.80334 23.416 7.17609C23.8551 7.54884 24.1012 8.06298 24.1544 8.71851C24.5004 8.08869 24.9261 7.58098 25.4317 7.19537C25.9507 6.80977 26.4563 6.61697 26.9486 6.61697Z" stroke="black" stroke-width="2" mask="url(#path-1-outside-1_1_112)"/>
<path d="M39.0083 13.6735C39.0882 13.7506 39.0948 13.8535 39.0283 13.982C38.7888 14.5733 38.1834 15.2352 37.2121 15.9679C36.2408 16.7005 35.1165 17.0668 33.8392 17.0668C32.3357 17.0668 31.1183 16.5527 30.1869 15.5244C29.2688 14.4961 28.9029 13.2558 29.0892 11.8033C29.2755 10.3509 29.9607 9.11697 31.1449 8.10154C32.3291 7.07326 33.7594 6.55913 35.4359 6.55913C36.9261 6.55913 38.0304 6.91902 38.7489 7.63882C39.4807 8.34576 39.8 9.10411 39.7069 9.91388C39.6137 10.6337 39.3277 11.2378 38.8487 11.7262C38.383 12.2018 37.8308 12.5231 37.1922 12.6902C36.5535 12.8573 35.8616 12.9666 35.1165 13.018C34.3847 13.0694 33.6995 13.0244 33.0609 12.883C33.2737 13.8213 33.9457 14.3612 35.0766 14.5026C36.2209 14.644 37.445 14.374 38.7489 13.6928C38.842 13.6285 38.9285 13.6221 39.0083 13.6735ZM34.438 8.93059C33.7993 9.26478 33.3602 10.0167 33.1207 11.1864C33.9723 11.2635 34.6375 11.1671 35.1165 10.8972C35.6088 10.6144 35.8882 10.2031 35.9548 9.66324C35.9947 9.39332 35.9215 9.16838 35.7352 8.98843C35.5623 8.80848 35.3228 8.72494 35.0167 8.73779C35.0167 8.75064 35.0101 8.75707 34.9968 8.75707H34.9369C34.7506 8.78278 34.5843 8.84062 34.438 8.93059Z" stroke="black" stroke-width="2" mask="url(#path-1-outside-1_1_112)"/>
<path d="M50.969 12.7674C50.8891 13.3843 50.8758 13.8663 50.929 14.2134C50.9956 14.5476 51.0887 14.8046 51.2085 14.9846C51.3282 15.1517 51.4546 15.2674 51.5877 15.3316C51.7207 15.383 51.8205 15.4409 51.887 15.5051C51.9536 15.5566 51.9669 15.6272 51.9269 15.7172C51.7673 16.0386 51.428 16.347 50.9091 16.6427C50.3902 16.9254 49.8646 17.0668 49.3324 17.0668C48.5075 17.0668 47.8422 16.8033 47.3366 16.2763C46.8443 15.7365 46.658 15.0231 46.7778 14.1362L47.2568 10.3959C47.3366 9.71465 47.1769 9.3419 46.7778 9.27763C46.3919 9.21337 46.0127 9.4383 45.6402 9.95244C45.3475 10.3638 45.1612 10.8522 45.0813 11.4177L44.4227 16.5848C44.4227 16.6491 44.3895 16.6877 44.3229 16.7005H40.3313C40.2781 16.6877 40.2515 16.6555 40.2515 16.6041C40.7305 13.6735 41.0299 11.7648 41.1496 10.8779C41.2295 10.2609 41.2428 9.78535 41.1895 9.45116C41.1363 9.10411 41.0565 8.84704 40.95 8.67995C40.8436 8.5 40.7305 8.38432 40.6108 8.3329C40.5043 8.26864 40.4178 8.2108 40.3513 8.15938C40.2981 8.10797 40.2914 8.03727 40.3313 7.9473C40.4777 7.61311 40.8103 7.30463 41.3292 7.02185C41.8481 6.72622 42.3737 6.57841 42.9059 6.57841C43.6111 6.57841 44.1832 6.78406 44.6223 7.19537C45.0747 7.59383 45.3208 8.1401 45.3608 8.83419C45.8531 8.06298 46.4318 7.49743 47.0971 7.13753C47.7757 6.76478 48.4143 6.57841 49.0131 6.57841C49.7848 6.57841 50.3968 6.87404 50.8492 7.4653C51.3149 8.05655 51.4879 8.82134 51.3681 9.75964C51.3415 9.991 51.2816 10.4216 51.1885 11.0514C51.1087 11.6684 51.0355 12.2404 50.969 12.7674Z" stroke="black" stroke-width="2" mask="url(#path-1-outside-1_1_112)"/>
<path d="M64.0581 12.7674C63.9783 13.5 63.965 14.0591 64.0182 14.4447C64.0848 14.8303 64.1846 15.081 64.3176 15.1967C64.464 15.2995 64.5771 15.383 64.6569 15.4473C64.7367 15.5116 64.75 15.5951 64.6968 15.6979C64.5504 16.0321 64.2178 16.347 63.6989 16.6427C63.18 16.9254 62.6544 17.0668 62.1222 17.0668C61.4303 17.0668 60.8649 16.874 60.4258 16.4884C59.9867 16.09 59.7406 15.5501 59.6873 14.8689C58.7161 16.3342 57.5718 17.0668 56.2546 17.0668C55.4562 17.0668 54.7843 16.8033 54.2388 16.2763C53.6933 15.7494 53.3207 15.0938 53.1212 14.3098C52.9349 13.5257 52.9016 12.6902 53.0214 11.8033C53.2076 10.3895 53.7199 9.16838 54.5581 8.1401C55.3964 7.09897 56.4408 6.57841 57.6915 6.57841C58.9689 6.57841 59.8869 7.18895 60.4457 8.41003L61.1443 2.89589C61.1576 2.84447 61.1908 2.81234 61.2441 2.79949H65.2357C65.2889 2.79949 65.3155 2.82519 65.3155 2.87661C64.5837 8.58355 64.1646 11.8805 64.0581 12.7674ZM57.2724 13.6735C57.472 14.162 57.8113 14.4062 58.2903 14.4062C58.7693 14.4062 59.1684 14.162 59.4878 13.6735C59.8204 13.1851 60.0333 12.5617 60.1264 11.8033C60.2196 11.045 60.1663 10.4216 59.9668 9.93316C59.7672 9.43188 59.4345 9.18123 58.9689 9.18123C58.4899 9.18123 58.084 9.43188 57.7514 9.93316C57.4188 10.4344 57.2059 11.0578 57.1128 11.8033C57.0196 12.5617 57.0728 13.1851 57.2724 13.6735Z" stroke="black" stroke-width="2" mask="url(#path-1-outside-1_1_112)"/>
<path d="M76.2032 15.2738C76.0436 16.9833 75.4182 18.365 74.3272 19.419C73.2361 20.473 71.7859 21 69.9763 21C69.2978 21 68.6791 20.8972 68.1202 20.6915C67.5747 20.4987 67.1489 20.2545 66.8429 19.9589C66.5369 19.6632 66.2974 19.3805 66.1244 19.1105C65.9648 18.8406 65.865 18.5964 65.8251 18.3779C65.7585 18.0694 65.7319 17.8316 65.7452 17.6645C65.7718 17.5103 65.8051 17.4075 65.845 17.356C65.8982 17.3046 65.9648 17.2853 66.0446 17.2982C66.1377 17.3111 66.2641 17.401 66.4238 17.5681C66.5835 17.7352 66.7498 17.9087 66.9227 18.0887C67.109 18.2815 67.4017 18.455 67.8009 18.6093C68.2001 18.7635 68.6524 18.8406 69.158 18.8406C69.9165 18.8406 70.5485 18.6285 71.0541 18.2044C71.573 17.7802 71.8923 17.2596 72.012 16.6427L72.2515 14.7147C71.7725 15.4859 71.2137 16.0514 70.5751 16.4113C69.9497 16.7712 69.3377 16.9512 68.7389 16.9512C67.9805 16.9512 67.3685 16.6555 66.9028 16.0643C66.4504 15.473 66.2841 14.7082 66.4038 13.7699L66.7631 10.8779C66.8429 10.2609 66.8496 9.78535 66.783 9.45116C66.7298 9.10411 66.6433 8.84704 66.5236 8.67995C66.4038 8.5 66.2774 8.38432 66.1444 8.3329C66.0246 8.26864 65.9248 8.2108 65.845 8.15938C65.7785 8.10797 65.7652 8.03727 65.8051 7.9473C65.9648 7.61311 66.304 7.30463 66.823 7.02185C67.3419 6.72622 67.8674 6.57841 68.3996 6.57841C69.2379 6.57841 69.9031 6.84833 70.3954 7.38817C70.8877 7.91517 71.074 8.62211 70.9543 9.509L70.4952 13.1337C70.4154 13.8278 70.5618 14.2005 70.9343 14.2519C71.3069 14.3162 71.6661 14.0848 72.012 13.5578C72.2781 13.1465 72.4511 12.671 72.5309 12.1311L73.1896 7.06041C73.1896 7.009 73.2162 6.97686 73.2694 6.96401H77.1213C77.1745 6.96401 77.2011 6.99614 77.2011 7.06041C76.762 10.8265 76.4294 13.5643 76.2032 15.2738Z" stroke="black" stroke-width="2" mask="url(#path-1-outside-1_1_112)"/>
<path d="M91.9401 13.5578C92.02 13.635 92.0266 13.7378 91.9601 13.8663C91.8536 14.1105 91.674 14.3933 91.4212 14.7147C91.1684 15.0231 90.8358 15.3573 90.4233 15.7172C90.0242 16.0643 89.5119 16.3599 88.8865 16.6041C88.2745 16.8355 87.6292 16.9512 86.9506 16.9512C85.4338 16.9512 84.2097 16.437 83.2783 15.4087C82.347 14.3805 81.9744 13.1401 82.1607 11.6877C82.347 10.2738 83.0056 9.06555 84.1365 8.06298C85.2675 7.04756 86.598 6.50771 88.1281 6.44344C89.3389 6.44344 90.3568 6.68123 91.1817 7.15681C92.0066 7.61954 92.3659 8.28149 92.2595 9.14267C92.2062 9.63111 91.9667 10.0746 91.541 10.473C91.1152 10.8715 90.6229 11.0707 90.0641 11.0707C89.758 11.0707 89.4653 11.0321 89.1859 10.955C88.9065 10.8779 88.7468 10.8072 88.7069 10.7429C88.6936 10.653 88.687 10.5887 88.687 10.5501C88.687 10.5116 88.7003 10.428 88.7269 10.2995C88.7535 10.1581 88.7734 10.0424 88.7868 9.95244C88.84 9.55398 88.7934 9.23265 88.647 8.98843C88.5007 8.74422 88.2878 8.62211 88.0084 8.62211C87.5028 8.62211 87.0704 8.94344 86.7111 9.58612C86.3652 10.2159 86.1789 10.9165 86.1523 11.6877C86.1257 12.5103 86.292 13.153 86.6512 13.6157C87.0105 14.0656 87.4762 14.3226 88.0483 14.3869C88.6337 14.4383 89.2391 14.3933 89.8645 14.2519C90.4898 14.1105 91.0886 13.8856 91.6607 13.5771C91.7805 13.5 91.8736 13.4936 91.9401 13.5578Z" stroke="black" stroke-width="2" mask="url(#path-1-outside-1_1_112)"/>
<path d="M102.842 8.42931C103.774 9.509 104.146 10.7751 103.96 12.2275C103.774 13.6799 103.088 14.8753 101.904 15.8136C100.733 16.7391 99.3362 17.1504 97.713 17.0476C96.1163 16.9319 94.8457 16.3342 93.901 15.2545C92.9696 14.1748 92.5971 12.9087 92.7833 11.4563C92.9696 10.0167 93.6615 8.82776 94.859 7.88946C96.0698 6.95116 97.4668 6.53342 99.0502 6.63625C100.647 6.75193 101.911 7.34961 102.842 8.42931ZM96.7151 11.7262C96.6086 12.6003 96.6552 13.3393 96.8548 13.9434C97.0677 14.5347 97.4469 14.8496 97.9924 14.8882C98.5512 14.9267 98.9969 14.6761 99.3296 14.1362C99.6755 13.5964 99.9084 12.8702 100.028 11.9576C100.148 11.0707 100.101 10.3316 99.8884 9.74036C99.6888 9.1491 99.3163 8.83419 98.7707 8.79563C98.2119 8.75707 97.7595 9.01414 97.4136 9.56684C97.0677 10.1195 96.8348 10.8393 96.7151 11.7262Z" stroke="black" stroke-width="2" mask="url(#path-1-outside-1_1_112)"/>
<path d="M114.946 8.42931C115.877 9.509 116.25 10.7751 116.063 12.2275C115.877 13.6799 115.192 14.8753 114.008 15.8136C112.837 16.7391 111.44 17.1504 109.816 17.0476C108.22 16.9319 106.949 16.3342 106.004 15.2545C105.073 14.1748 104.701 12.9087 104.887 11.4563C105.073 10.0167 105.765 8.82776 106.962 7.88946C108.173 6.95116 109.57 6.53342 111.154 6.63625C112.75 6.75193 114.014 7.34961 114.946 8.42931ZM108.819 11.7262C108.712 12.6003 108.759 13.3393 108.958 13.9434C109.171 14.5347 109.55 14.8496 110.096 14.8882C110.655 14.9267 111.1 14.6761 111.433 14.1362C111.779 13.5964 112.012 12.8702 112.132 11.9576C112.251 11.0707 112.205 10.3316 111.992 9.74036C111.792 9.1491 111.42 8.83419 110.874 8.79563C110.315 8.75707 109.863 9.01414 109.517 9.56684C109.171 10.1195 108.938 10.8393 108.819 11.7262Z" stroke="black" stroke-width="2" mask="url(#path-1-outside-1_1_112)"/>
<path d="M127.911 15.428C128.071 15.5051 128.144 15.5823 128.131 15.6594C128.131 15.7365 128.038 15.8715 127.852 16.0643C127.572 16.3342 127.16 16.5784 126.614 16.7969C126.082 17.0154 125.556 17.1247 125.038 17.1247C124.386 17.1247 123.82 17.0026 123.341 16.7584C122.875 16.5141 122.536 16.2057 122.323 15.8329C122.11 15.4602 121.931 15.0553 121.784 14.6183C121.638 14.1812 121.571 13.7763 121.585 13.4036C121.611 13.018 121.625 12.6967 121.625 12.4396C121.665 12.1568 121.758 12.0154 121.904 12.0154C122.902 12.0154 123.567 11.6555 123.9 10.9357C124.139 10.3959 124.119 9.92674 123.84 9.52828C123.667 9.28406 123.434 9.16195 123.142 9.16195C122.596 9.16195 122.17 9.36761 121.864 9.77892C121.558 10.1902 121.365 10.6658 121.285 11.2057L120.607 16.5848L120.507 16.7005H116.655C116.602 16.6877 116.575 16.6555 116.575 16.6041C117.52 8.86632 118.085 4.30334 118.272 2.91517C118.285 2.87661 118.312 2.8509 118.352 2.83805H122.263L122.323 2.85733C122.337 2.87018 122.343 2.88946 122.343 2.91517L121.625 8.56427C122.09 7.90874 122.643 7.41388 123.281 7.07969C123.933 6.7455 124.585 6.57841 125.237 6.57841C126.315 6.57841 127.073 7.009 127.512 7.87018C127.911 8.65424 127.905 9.46401 127.492 10.2995C127.027 11.2763 126.195 11.8548 124.998 12.0347L124.978 12.0733C124.991 12.1375 125.011 12.2211 125.038 12.3239C125.077 12.4267 125.171 12.626 125.317 12.9216C125.477 13.2172 125.656 13.5 125.856 13.7699C126.055 14.027 126.335 14.3162 126.694 14.6375C127.067 14.946 127.472 15.2095 127.911 15.428Z" stroke="black" stroke-width="2" mask="url(#path-1-outside-1_1_112)"/>
<path d="M134.684 4.26478C134.631 4.76607 134.352 5.19023 133.846 5.53727C133.34 5.88432 132.768 6.05784 132.13 6.05784C131.491 6.05784 130.965 5.88432 130.553 5.53727C130.154 5.19023 129.981 4.76607 130.034 4.26478C130.101 3.77635 130.38 3.35861 130.872 3.01157C131.365 2.65167 131.93 2.47172 132.569 2.47172C133.207 2.47172 133.733 2.65167 134.145 3.01157C134.558 3.35861 134.737 3.77635 134.684 4.26478ZM129.854 7.06041L129.954 6.94473H133.946C134.012 6.95758 134.046 6.98972 134.046 7.04113C133.567 9.97172 133.267 11.8805 133.148 12.7674C133.068 13.3843 133.054 13.8663 133.108 14.2134C133.161 14.5476 133.234 14.8046 133.327 14.9846C133.434 15.1517 133.547 15.2674 133.666 15.3316C133.786 15.383 133.873 15.4344 133.926 15.4859C133.979 15.5373 133.986 15.608 133.946 15.6979C133.799 16.0321 133.467 16.347 132.948 16.6427C132.429 16.9254 131.903 17.0668 131.371 17.0668C130.546 17.0668 129.908 16.8033 129.455 16.2763C129.016 15.7494 128.85 15.036 128.956 14.1362L129.854 7.06041Z" stroke="black" stroke-width="2" mask="url(#path-1-outside-1_1_112)"/>
<path d="M145.016 13.6735C145.096 13.7506 145.102 13.8535 145.036 13.982C144.796 14.5733 144.191 15.2352 143.22 15.9679C142.248 16.7005 141.124 17.0668 139.847 17.0668C138.343 17.0668 137.126 16.5527 136.194 15.5244C135.276 14.4961 134.91 13.2558 135.097 11.8033C135.283 10.3509 135.968 9.11697 137.152 8.10154C138.337 7.07326 139.767 6.55913 141.443 6.55913C142.934 6.55913 144.038 6.91902 144.756 7.63882C145.488 8.34576 145.807 9.10411 145.714 9.91388C145.621 10.6337 145.335 11.2378 144.856 11.7262C144.39 12.2018 143.838 12.5231 143.2 12.6902C142.561 12.8573 141.869 12.9666 141.124 13.018C140.392 13.0694 139.707 13.0244 139.068 12.883C139.281 13.8213 139.953 14.3612 141.084 14.5026C142.228 14.644 143.452 14.374 144.756 13.6928C144.85 13.6285 144.936 13.6221 145.016 13.6735ZM140.445 8.93059C139.807 9.26478 139.368 10.0167 139.128 11.1864C139.98 11.2635 140.645 11.1671 141.124 10.8972C141.616 10.6144 141.896 10.2031 141.962 9.66324C142.002 9.39332 141.929 9.16838 141.743 8.98843C141.57 8.80848 141.33 8.72494 141.024 8.73779C141.024 8.75064 141.018 8.75707 141.004 8.75707H140.944C140.758 8.78278 140.592 8.84062 140.445 8.93059Z" stroke="black" stroke-width="2" mask="url(#path-1-outside-1_1_112)"/>
<path d="M152.949 11.0129C155.051 11.6427 156.016 12.6452 155.843 14.0206C155.75 14.7532 155.391 15.3638 154.765 15.8522C154.14 16.3278 153.448 16.6491 152.69 16.8162C151.931 16.9961 151.133 17.0797 150.295 17.0668C149.616 17.054 148.951 16.9704 148.299 16.8162C147.647 16.6748 147.068 16.3985 146.563 15.9871C146.057 15.5758 145.844 15.081 145.924 14.5026C145.99 14.0141 146.223 13.6028 146.622 13.2686C147.035 12.9216 147.521 12.7545 148.079 12.7674C148.399 12.7802 148.711 12.8252 149.017 12.9023C149.337 12.9794 149.51 13.0566 149.536 13.1337C149.563 13.2365 149.576 13.3072 149.576 13.3458C149.576 13.3715 149.563 13.455 149.536 13.5964C149.51 13.7378 149.49 13.847 149.476 13.9242C149.423 14.2969 149.49 14.5861 149.676 14.7918C149.876 14.9974 150.155 15.1067 150.514 15.1195C151.206 15.1195 151.599 14.8368 151.692 14.2712C151.705 14.0913 151.672 13.937 151.592 13.8085C151.525 13.6671 151.386 13.5386 151.173 13.4229C150.96 13.3072 150.78 13.2172 150.634 13.153C150.488 13.0887 150.222 12.9987 149.836 12.883C149.45 12.7545 149.184 12.6645 149.037 12.6131C148.306 12.3432 147.713 11.964 147.261 11.4756C146.809 10.9743 146.622 10.3702 146.702 9.66324V9.6054C146.822 8.66709 147.387 7.92159 148.399 7.36889C149.41 6.80334 150.474 6.53342 151.592 6.55913C152.869 6.58483 153.947 6.82262 154.825 7.27249C155.703 7.70951 156.089 8.32648 155.983 9.12339C155.93 9.59897 155.71 9.99743 155.324 10.3188C154.938 10.6401 154.446 10.7943 153.847 10.7815C153.515 10.7686 153.202 10.7237 152.909 10.6465C152.63 10.5566 152.477 10.473 152.45 10.3959C152.424 10.3573 152.45 10.0938 152.53 9.6054C152.583 9.21979 152.537 8.93702 152.39 8.75707C152.244 8.57712 151.998 8.49357 151.652 8.50643C151.359 8.50643 151.113 8.60283 150.913 8.79563C150.727 8.98843 150.621 9.18766 150.594 9.39332C150.541 9.79177 150.681 10.0938 151.013 10.2995C151.359 10.4923 151.918 10.7044 152.69 10.9357C152.716 10.9486 152.736 10.955 152.75 10.955C152.763 10.955 152.783 10.9614 152.809 10.9743C152.836 10.9743 152.856 10.9807 152.869 10.9936C152.896 10.9936 152.923 11 152.949 11.0129Z" stroke="black" stroke-width="2" mask="url(#path-1-outside-1_1_112)"/>
</g>
<defs>
<filter id="filter0_d_1_112" x="0" y="0" width="161" height="30" filterUnits="userSpaceOnUse" color-interpolation-filters="sRGB">
<feFlood flood-opacity="0" result="BackgroundImageFix"/>
<feColorMatrix in="SourceAlpha" type="matrix" values="0 0 0 0 0 0 0 0 0 0 0 0 0 0 0 0 0 0 127 0" result="hardAlpha"/>
<feOffset dy="4"/>
<feGaussianBlur stdDeviation="2"/>
<feComposite in2="hardAlpha" operator="out"/>
<feColorMatrix type="matrix" values="0 0 0 0 0 0 0 0 0 0 0 0 0 0 0 0 0 0 0.25 0"/>
<feBlend mode="normal" in2="BackgroundImageFix" result="effect1_dropShadow_1_112"/>
<feBlend mode="normal" in="SourceGraphic" in2="effect1_dropShadow_1_112" result="shape"/>
</filter>
</defs>
</svg>
